<?xml version="1.0" standalone="no"?>
<!DOCTYPE svg PUBLIC "-//W3C//DTD SVG 20010904//EN"
 "http://www.w3.org/TR/2001/REC-SVG-20010904/DTD/svg10.dtd">
<svg version="1.0" xmlns="http://www.w3.org/2000/svg"
 width="4873.000000pt" height="2160.000000pt" viewBox="0 0 4873.000000 2160.000000"
 preserveAspectRatio="xMidYMid meet">

<g transform="translate(0.000000,2160.000000) scale(0.100000,-0.100000)"
fill="#000000" stroke="none">
<path d="M8690 14474 c-507 -46 -965 -237 -1337 -558 -423 -365 -689 -849
-780 -1421 -21 -136 -24 -495 -5 -630 26 -178 104 -481 132 -509 6 -6 176 35
425 100 341 89 414 112 409 124 -30 70 -79 228 -96 312 -28 137 -30 391 -5
523 59 303 195 563 402 770 220 220 483 357 790 412 110 20 350 22 455 4 245
-41 465 -134 649 -272 36 -27 65 -48 66 -46 40 56 434 752 428 756 -130 98
-380 231 -558 296 -126 47 -327 98 -470 120 -106 16 -412 27 -505 19z"/>
<path d="M14050 14373 c-313 -41 -493 -217 -550 -538 -18 -104 -23 -284 -11
-398 38 -346 179 -534 456 -608 65 -18 109 -22 235 -22 163 -1 236 11 333 52
l47 20 0 109 0 108 -67 -33 c-98 -47 -171 -63 -295 -63 -180 0 -282 34 -364
122 -96 102 -128 220 -128 468 0 189 13 266 59 368 50 109 131 176 250 207
142 36 371 11 491 -54 l54 -29 0 109 0 109 -37 16 c-87 38 -178 55 -308 59
-71 2 -146 1 -165 -2z"/>
<path d="M22310 14374 c-208 -28 -366 -127 -447 -280 -63 -119 -103 -313 -103
-504 0 -191 40 -385 103 -504 67 -127 199 -224 355 -263 97 -24 333 -23 427 1
279 73 416 267 447 634 21 242 -15 486 -95 636 -67 126 -200 225 -349 261 -64
16 -274 27 -338 19z m322 -226 c173 -80 243 -240 243 -558 0 -317 -70 -477
-243 -558 -54 -25 -66 -27 -202 -27 -136 0 -148 2 -202 27 -174 81 -243 240
-243 558 0 296 60 453 203 538 74 42 125 52 262 49 110 -3 132 -6 182 -29z"/>
<path d="M34545 14370 c-133 -21 -215 -61 -288 -139 -55 -59 -82 -115 -98
-208 -24 -138 10 -283 84 -362 71 -74 150 -108 373 -160 188 -43 243 -62 292
-99 60 -44 73 -76 70 -169 -3 -72 -7 -86 -33 -125 -21 -28 -50 -53 -90 -73
-58 -30 -60 -30 -219 -30 -137 0 -172 3 -239 23 -85 24 -183 70 -235 109 l-33
25 3 -119 3 -118 60 -32 c214 -114 613 -122 808 -15 99 53 165 155 188 286 25
145 -10 284 -93 372 -67 71 -151 110 -327 151 -214 51 -271 69 -322 101 -57
37 -79 81 -79 159 1 159 107 233 331 233 137 0 225 -20 332 -74 l88 -44 -3
112 -3 111 -55 27 c-30 14 -91 34 -135 43 -95 20 -296 28 -380 15z"/>
<path d="M42135 14370 c-133 -21 -215 -61 -288 -139 -55 -59 -82 -115 -98
-208 -24 -138 10 -283 84 -362 71 -74 150 -108 373 -160 188 -43 243 -62 292
-99 60 -44 73 -76 70 -169 -3 -72 -7 -86 -33 -125 -21 -28 -50 -53 -90 -73
-58 -30 -60 -30 -219 -30 -137 0 -172 3 -239 23 -85 24 -183 70 -235 109 l-33
25 3 -119 3 -118 60 -32 c214 -114 613 -122 808 -15 99 53 165 155 188 286 25
145 -10 284 -93 372 -67 71 -151 110 -327 151 -214 51 -271 69 -322 101 -57
37 -79 81 -79 159 1 159 107 233 331 233 137 0 225 -20 332 -74 l88 -44 -3
112 -3 111 -55 27 c-30 14 -91 34 -135 43 -95 20 -296 28 -380 15z"/>
<path d="M39020 14275 l0 -85 90 0 90 0 0 -595 0 -595 -90 0 -90 0 0 -85 0
-85 295 0 295 0 0 85 0 85 -95 0 -95 0 0 595 0 595 95 0 95 0 0 85 0 85 -295
0 -295 0 0 -85z"/>
<path d="M15090 13590 l0 -760 110 0 110 0 0 340 0 340 390 0 390 0 0 -340 0
-340 110 0 110 0 0 760 0 760 -110 0 -110 0 0 -320 0 -320 -390 0 -390 0 0
320 0 320 -110 0 -110 0 0 -760z"/>
<path d="M17207 13878 c-103 -260 -238 -603 -301 -761 l-114 -288 111 3 111 3
69 183 70 182 344 -2 345 -3 34 -90 c19 -49 51 -132 70 -182 l36 -93 114 0
c63 0 114 1 114 3 0 1 -134 342 -299 757 l-299 755 -109 3 -109 3 -187 -473z
m427 -142 c70 -181 125 -330 123 -332 -2 -3 -121 -3 -265 -2 l-260 3 130 338
c72 186 134 334 138 330 4 -4 64 -156 134 -337z"/>
<path d="M18690 13591 l0 -761 110 0 110 0 0 310 0 310 173 0 172 0 199 -310
198 -310 129 0 129 0 -24 38 c-13 20 -103 162 -200 315 -97 153 -176 281 -176
286 0 4 25 15 55 25 104 33 187 120 222 235 27 86 24 265 -4 357 -39 122 -125
199 -270 241 -48 14 -123 17 -440 21 l-383 4 0 -761z m756 544 c94 -28 135
-89 142 -210 7 -135 -27 -207 -118 -249 -41 -19 -66 -21 -302 -24 l-258 -3 0
250 0 251 243 0 c185 0 255 -4 293 -15z"/>
<path d="M20400 13590 l0 -760 485 0 485 0 0 100 0 100 -375 0 -375 0 0 660 0
660 -110 0 -110 0 0 -760z"/>
<path d="M23490 14250 l0 -100 240 0 240 0 0 -660 0 -660 110 0 110 0 0 660 0
660 240 0 240 0 0 100 0 100 -590 0 -590 0 0 -100z"/>
<path d="M25080 14250 l0 -100 240 0 240 0 0 -660 0 -660 110 0 110 0 0 660 0
660 240 0 240 0 0 100 0 100 -590 0 -590 0 0 -100z"/>
<path d="M26750 13590 l0 -760 555 0 556 0 -3 98 -3 97 -442 3 -443 2 0 235 0
235 375 0 375 0 0 100 0 100 -375 0 -375 0 0 225 0 225 435 0 435 0 0 100 0
100 -545 0 -545 0 0 -760z"/>
<path d="M29300 13590 l0 -760 110 0 110 0 0 335 0 335 355 0 355 0 0 100 0
100 -355 0 -355 0 0 225 0 225 400 0 400 0 0 100 0 100 -510 0 -510 0 0 -760z"/>
<path d="M30820 13591 l0 -761 110 0 110 0 0 310 0 310 173 0 172 0 199 -310
198 -310 129 0 129 0 -24 38 c-13 20 -103 162 -200 315 -97 153 -176 281 -176
286 0 4 25 15 55 25 104 33 187 120 222 235 27 86 24 265 -4 357 -39 122 -125
199 -270 241 -48 14 -123 17 -440 21 l-383 4 0 -761z m756 544 c94 -28 135
-89 142 -210 7 -135 -27 -207 -118 -249 -41 -19 -66 -21 -302 -24 l-258 -3 0
250 0 251 243 0 c185 0 255 -4 293 -15z"/>
<path d="M32530 13590 l0 -760 555 0 556 0 -3 98 -3 97 -442 3 -443 2 0 235 0
235 375 0 375 0 0 100 0 100 -375 0 -375 0 0 225 0 225 435 0 435 0 0 100 0
100 -545 0 -545 0 0 -760z"/>
<path d="M35720 13590 l0 -760 555 0 556 0 -3 98 -3 97 -442 3 -443 2 0 235 0
235 375 0 375 0 0 100 0 100 -375 0 -375 0 0 225 0 225 435 0 435 0 0 100 0
100 -545 0 -545 0 0 -760z"/>
<path d="M37360 13590 l0 -760 105 0 105 0 2 604 3 603 395 -603 395 -603 103
-1 102 0 0 760 0 760 -105 0 -105 0 -2 -558 -3 -559 -365 558 -365 558 -132 0
-133 1 0 -760z"/>
<path d="M40043 13798 c4 -609 6 -628 68 -753 84 -172 279 -256 559 -241 295
15 435 115 507 361 15 53 17 124 21 623 l3 562 -105 0 -105 0 -3 -557 c-4
-622 -2 -608 -75 -692 -66 -77 -166 -107 -331 -99 -121 6 -186 32 -242 95 -76
87 -74 70 -78 696 l-3 557 -110 0 -110 0 4 -552z"/>
<path d="M5287 11753 c-42 -440 80 -958 320 -1361 359 -604 984 -1012 1693
-1108 140 -18 439 -18 587 1 523 68 1029 325 1383 702 45 48 89 98 98 111 15
23 11 28 -289 328 l-304 305 -25 -33 c-220 -287 -552 -489 -913 -555 -127 -23
-370 -22 -497 2 -303 57 -556 190 -770 404 -174 174 -283 348 -355 564 -59
177 -70 251 -70 457 0 102 3 200 7 218 l8 32 -434 0 -433 0 -6 -67z"/>
<path d="M17870 11344 c-428 -41 -713 -236 -860 -588 -91 -216 -124 -423 -124
-771 0 -271 14 -402 61 -584 80 -313 247 -538 488 -659 75 -37 196 -76 311
-98 125 -25 443 -25 569 0 246 48 407 128 546 272 215 224 319 572 319 1069 0
651 -180 1053 -556 1243 -150 76 -313 110 -544 116 -91 2 -185 2 -210 0z m415
-348 c359 -98 525 -419 525 -1011 0 -592 -167 -914 -525 -1011 -93 -25 -351
-31 -455 -10 -321 65 -486 267 -557 681 -24 141 -24 539 0 680 25 144 53 239
97 330 93 191 236 303 450 350 89 20 381 14 465 -9z"/>
<path d="M21156 11340 c-450 -52 -746 -260 -887 -623 -153 -399 -158 -1040 -9
-1434 56 -148 120 -252 220 -353 98 -100 170 -150 290 -201 180 -77 335 -103
600 -103 263 0 440 33 590 109 l50 25 0 180 0 179 -58 -33 c-154 -91 -295
-127 -519 -133 -264 -8 -428 26 -568 117 -167 109 -266 285 -317 560 -29 159
-31 531 -4 695 63 383 222 584 528 667 75 21 104 23 303 22 206 0 227 -2 320
-27 55 -15 148 -50 208 -80 l107 -53 0 179 0 178 -64 30 c-142 66 -309 98
-546 104 -91 2 -201 0 -244 -5z"/>
<path d="M26935 11338 c-129 -14 -243 -46 -353 -99 -138 -67 -230 -155 -290
-279 -60 -122 -73 -183 -79 -350 -6 -172 8 -256 62 -368 83 -175 275 -297 575
-367 509 -118 636 -161 718 -243 73 -73 102 -185 83 -314 -28 -181 -133 -291
-331 -345 -102 -28 -458 -25 -597 5 -181 39 -340 104 -485 198 l-68 44 0 -189
0 -190 59 -36 c197 -119 469 -179 816 -179 274 0 434 29 600 110 256 125 394
393 371 724 -13 203 -59 314 -181 436 -135 135 -260 188 -642 274 -280 63
-341 81 -430 125 -146 73 -200 169 -191 337 5 73 11 100 37 152 81 164 246
236 544 236 258 0 497 -61 668 -170 25 -17 49 -30 52 -30 4 0 7 81 7 180 l0
180 -38 25 c-160 106 -589 169 -907 133z"/>
<path d="M29926 11340 c-309 -36 -520 -131 -693 -313 -150 -158 -242 -377
-290 -687 -24 -161 -24 -549 0 -708 51 -327 141 -534 307 -702 98 -100 170
-150 290 -201 180 -77 335 -103 600 -103 263 0 440 33 590 109 l50 25 0 180 0
179 -58 -33 c-154 -91 -295 -127 -519 -133 -264 -8 -428 26 -568 117 -167 109
-267 285 -317 560 -29 160 -32 532 -4 695 64 384 222 584 528 667 75 21 104
23 303 22 206 0 227 -2 320 -27 55 -15 148 -50 208 -80 l107 -53 0 179 0 178
-64 30 c-142 66 -309 98 -546 104 -91 2 -201 0 -244 -5z"/>
<path d="M13720 9985 l0 -1315 180 0 180 0 0 585 0 585 680 0 680 0 0 -585 0
-585 180 0 180 0 0 1315 0 1315 -180 0 -180 0 0 -560 0 -560 -680 0 -680 0 0
560 0 560 -180 0 -180 0 0 -1315z"/>
<path d="M23030 9985 l0 -1315 180 0 180 0 0 585 0 585 680 0 680 0 0 -585 0
-585 180 0 180 0 0 1315 0 1315 -180 0 -180 0 0 -560 0 -560 -680 0 -680 0 0
560 0 560 -180 0 -180 0 0 -1315z"/>
<path d="M31800 9985 l0 -1315 180 0 180 0 0 585 0 585 680 0 680 0 0 -585 0
-585 180 0 180 0 0 1315 0 1315 -180 0 -180 0 0 -560 0 -560 -680 0 -680 0 0
560 0 560 -180 0 -180 0 0 -1315z"/>
<path d="M35063 10358 c3 -835 6 -953 21 -1028 26 -132 44 -188 93 -290 38
-79 59 -108 132 -180 70 -70 103 -94 174 -129 116 -56 249 -89 424 -103 267
-22 531 16 712 103 70 34 102 57 172 128 124 125 185 253 226 475 15 80 17
205 20 1029 l4 937 -175 0 -175 0 -3 -942 c-3 -937 -4 -943 -26 -1021 -75
-269 -263 -388 -611 -387 -398 2 -585 163 -621 537 -6 64 -10 457 -10 961 l0
852 -181 0 -180 0 4 -942z"/>
<path d="M38220 9985 l0 -1315 835 0 835 0 0 165 0 165 -655 0 -655 0 0 1150
0 1150 -180 0 -180 0 0 -1315z"/>
<path d="M40850 9985 l0 -1315 950 0 950 0 0 165 0 165 -770 0 -770 0 0 420 0
420 650 0 650 0 0 165 0 165 -650 0 -650 0 0 400 0 400 758 2 757 3 3 163 2
162 -940 0 -940 0 0 -1315z"/>
<path d="M21458 7160 c-136 -24 -226 -85 -269 -182 -19 -43 -23 -70 -24 -148
0 -87 3 -100 30 -150 50 -92 118 -127 364 -185 181 -43 231 -81 231 -178 0
-95 -53 -154 -158 -176 -134 -28 -330 10 -440 84 -20 14 -40 25 -44 25 -5 0
-8 -38 -8 -84 l0 -84 33 -20 c96 -59 305 -94 449 -75 164 22 262 81 309 186
19 42 23 69 23 147 1 111 -18 164 -78 222 -53 52 -110 76 -281 118 -82 20
-167 45 -189 55 -57 27 -78 67 -73 138 4 71 26 103 93 137 44 22 60 25 159 24
115 -1 200 -21 271 -65 17 -10 34 -19 38 -19 3 0 6 38 6 84 l0 84 -48 20 c-27
12 -69 26 -93 32 -62 14 -245 21 -301 10z"/>
<path d="M26813 7160 c-191 -35 -310 -152 -360 -355 -12 -51 -17 -113 -17
-230 0 -180 14 -258 64 -362 39 -80 126 -161 205 -191 170 -65 407 -48 538 39
128 85 197 265 197 514 0 316 -101 501 -310 566 -75 23 -238 33 -317 19z m273
-169 c127 -56 184 -186 184 -416 0 -170 -37 -299 -103 -363 -59 -57 -119 -77
-233 -77 -92 0 -106 3 -159 30 -74 38 -118 94 -147 188 -19 61 -23 95 -23 222
0 127 4 161 22 221 51 163 151 228 334 220 50 -3 93 -11 125 -25z"/>
<path d="M31558 7160 c-136 -24 -226 -85 -269 -182 -19 -43 -23 -70 -24 -148
0 -87 3 -100 30 -150 50 -92 118 -127 364 -185 181 -43 231 -81 231 -178 0
-95 -53 -154 -158 -176 -134 -28 -330 10 -440 84 -20 14 -40 25 -44 25 -5 0
-8 -38 -8 -84 l0 -84 33 -20 c96 -59 305 -94 449 -75 164 22 263 82 309 186
18 42 23 70 23 147 1 111 -18 164 -78 222 -53 52 -110 76 -281 118 -82 20
-167 45 -189 55 -57 27 -78 67 -73 138 4 71 26 103 93 137 44 22 60 25 159 24
115 -1 200 -21 271 -65 17 -10 34 -19 38 -19 3 0 6 38 6 84 l0 84 -48 20 c-27
12 -69 26 -93 32 -62 14 -245 21 -301 10z"/>
<path d="M34145 7164 c-11 -2 -45 -9 -75 -15 -120 -25 -233 -107 -284 -208
-53 -103 -70 -192 -70 -361 0 -175 14 -254 65 -357 78 -162 224 -237 459 -237
123 0 178 9 253 41 l37 16 0 83 0 83 -63 -29 c-82 -39 -164 -54 -257 -47 -220
17 -310 126 -327 392 -6 105 6 215 33 297 18 56 83 132 135 159 103 52 292 48
416 -10 l63 -30 0 83 0 83 -37 16 c-21 9 -56 21 -78 27 -43 12 -237 22 -270
14z"/>
<path d="M36833 7160 c-191 -35 -310 -152 -360 -355 -12 -51 -17 -113 -17
-230 0 -180 14 -258 64 -362 39 -79 129 -164 205 -192 171 -64 408 -47 538 40
128 85 197 265 197 514 0 316 -101 501 -310 566 -75 23 -238 33 -317 19z m273
-169 c127 -56 184 -186 184 -416 0 -170 -37 -299 -103 -363 -59 -57 -119 -77
-233 -77 -92 0 -106 3 -159 30 -74 38 -118 94 -147 188 -19 61 -23 95 -23 222
0 127 4 161 22 221 51 163 151 228 334 220 50 -3 93 -11 125 -25z"/>
<path d="M39473 7160 c-191 -35 -310 -152 -360 -355 -12 -51 -17 -113 -17
-230 0 -180 14 -258 64 -362 39 -80 126 -161 205 -191 170 -65 407 -48 538 39
128 85 197 265 197 514 0 316 -101 501 -310 566 -75 23 -238 33 -317 19z m273
-169 c127 -56 184 -186 184 -416 0 -170 -37 -299 -103 -363 -59 -57 -119 -77
-233 -77 -92 0 -106 3 -159 30 -74 38 -118 94 -147 188 -19 61 -23 95 -23 222
0 127 4 161 22 221 51 163 151 228 334 220 50 -3 93 -11 125 -25z"/>
<path d="M41015 7161 c-235 -39 -367 -156 -422 -377 -24 -96 -24 -333 0 -424
43 -160 122 -265 242 -321 182 -86 477 -73 627 26 l38 25 0 285 0 285 -215 0
-215 0 0 -75 0 -75 130 0 130 0 0 -170 0 -170 -27 -11 c-61 -23 -181 -33 -258
-22 -152 22 -234 89 -278 227 -18 59 -22 94 -22 211 0 121 3 150 25 215 45
139 147 212 317 226 121 10 216 -9 361 -73 9 -4 12 15 12 76 0 78 -1 81 -28
95 -80 41 -300 66 -417 47z"/>
<path d="M13500 6758 c0 -227 5 -421 11 -458 30 -190 135 -287 339 -313 177
-22 333 17 417 104 94 99 103 155 103 656 l0 403 -80 0 -80 0 0 -403 c0 -458
-3 -482 -69 -548 -46 -47 -102 -63 -211 -62 -126 0 -187 32 -233 118 -21 39
-22 52 -25 468 l-3 427 -84 0 -85 0 0 -392z"/>
<path d="M14940 6575 l0 -575 80 0 80 0 2 451 3 451 295 -450 295 -451 78 -1
77 0 0 575 0 575 -80 0 -80 0 -2 -417 -3 -417 -274 417 -273 417 -99 0 -99 0
0 -575z"/>
<path d="M16420 6575 l0 -575 85 0 85 0 0 575 0 575 -85 0 -85 0 0 -575z"/>
<path d="M17045 7133 c3 -10 97 -269 208 -576 l202 -558 83 3 84 3 199 550
c110 303 202 560 205 573 6 22 4 22 -77 22 l-84 0 -160 -450 c-88 -247 -163
-446 -166 -442 -4 4 -77 206 -164 450 l-158 442 -89 0 c-82 0 -90 -2 -83 -17z"/>
<path d="M18490 6575 l0 -575 420 0 420 0 0 75 0 75 -335 0 -335 0 0 180 0
180 285 0 285 0 0 75 0 75 -285 0 -285 0 0 170 0 170 330 0 330 0 0 75 0 75
-415 0 -415 0 0 -575z"/>
<path d="M19820 6575 l0 -575 85 0 85 0 0 235 0 235 124 0 125 0 148 -235 148
-234 98 -1 c53 0 97 2 97 5 0 3 -67 112 -150 243 l-149 236 51 19 c117 44 173
143 173 307 -1 157 -45 244 -148 294 -77 38 -156 46 -434 46 l-253 0 0 -575z
m585 400 c58 -30 80 -74 80 -165 0 -91 -22 -135 -80 -165 -35 -17 -64 -20
-227 -23 l-188 -4 0 192 0 192 188 -4 c163 -3 192 -6 227 -23z"/>
<path d="M22450 6575 l0 -575 85 0 85 0 0 575 0 575 -85 0 -85 0 0 -575z"/>
<path d="M23070 7075 l0 -75 180 0 180 0 0 -500 0 -500 85 0 85 0 0 500 0 500
180 0 180 0 0 75 0 75 -445 0 -445 0 0 -75z"/>
<path d="M24353 7113 c13 -21 108 -171 210 -334 l187 -297 0 -241 0 -241 85 0
85 0 0 243 0 243 201 318 c110 176 203 325 206 333 4 11 -11 13 -88 11 l-93
-3 -150 -242 c-83 -134 -153 -243 -156 -243 -3 0 -74 110 -158 245 l-153 245
-100 0 -99 0 23 -37z"/>
<path d="M27960 6575 l0 -575 85 0 85 0 0 255 0 255 270 0 270 0 0 75 0 75
-270 0 -270 0 0 170 0 170 300 0 300 0 0 75 0 75 -385 0 -385 0 0 -575z"/>
<path d="M29960 6576 l0 -576 85 0 85 0 0 224 0 224 223 4 c259 5 309 17 383
93 60 62 79 124 79 260 0 102 -2 115 -31 176 -36 76 -74 110 -160 141 -55 20
-82 22 -361 26 l-303 4 0 -576z m600 397 c67 -33 85 -69 85 -173 0 -101 -18
-142 -80 -174 -36 -19 -60 -21 -237 -24 l-198 -4 0 202 0 202 193 -4 c174 -3
196 -5 237 -25z"/>
<path d="M32423 7113 c13 -21 108 -171 210 -334 l187 -297 0 -241 0 -241 85 0
85 0 0 243 0 243 201 318 c110 176 203 325 206 333 4 11 -11 13 -88 11 l-93
-3 -150 -242 c-83 -134 -153 -243 -156 -243 -3 0 -74 110 -158 245 l-153 245
-100 0 -99 0 23 -37z"/>
<path d="M35020 6575 l0 -575 85 0 85 0 0 255 0 255 285 0 285 0 0 -255 0
-255 85 0 85 0 0 575 0 575 -85 0 -85 0 0 -240 0 -240 -285 0 -285 0 0 240 0
240 -85 0 -85 0 0 -575z"/>
<path d="M37980 6575 l0 -575 370 0 370 0 0 75 0 75 -285 0 -285 0 0 500 0
500 -85 0 -85 0 0 -575z"/>
<path d="M41893 7113 c13 -21 108 -171 210 -334 l187 -297 0 -241 0 -241 85 0
85 0 0 243 0 243 201 318 c110 176 203 325 206 333 4 11 -11 13 -88 11 l-93
-3 -150 -242 c-83 -134 -153 -243 -156 -243 -3 0 -74 110 -158 245 l-153 245
-100 0 -99 0 23 -37z"/>
</g>
</svg>
