<?xml version="1.0" standalone="no"?>
<!DOCTYPE svg PUBLIC "-//W3C//DTD SVG 20010904//EN"
 "http://www.w3.org/TR/2001/REC-SVG-20010904/DTD/svg10.dtd">
<svg version="1.0" xmlns="http://www.w3.org/2000/svg"
 width="400.000000pt" height="400.000000pt" viewBox="0 0 400.000000 400.000000"
 preserveAspectRatio="xMidYMid meet">

<g transform="translate(0.000000,400.000000) scale(0.100000,-0.100000)"
fill="#000000" stroke="none">
<path d="M2077 3524 c-153 -23 -312 -78 -431 -148 -300 -176 -512 -482 -572
-827 -24 -141 -15 -371 20 -503 14 -55 30 -104 36 -110 9 -9 405 87 422 103 3
3 -5 40 -20 81 -24 68 -26 88 -26 225 0 136 3 158 27 230 40 119 91 199 192
300 76 77 105 98 185 138 122 60 207 80 340 79 159 -1 296 -44 428 -134 24
-17 48 -26 52 -22 5 5 56 90 113 189 l106 180 -27 23 c-50 42 -265 141 -362
167 -172 45 -325 54 -483 29z"/>
<path d="M2342 2676 c-18 -68 -29 -132 -26 -143 5 -15 4 -16 -6 -3 -9 12 -10
8 -5 -20 4 -21 3 -30 -2 -22 -6 8 -14 -5 -23 -40 -7 -29 -15 -59 -17 -65 -6
-15 42 -18 51 -5 3 5 20 9 38 9 26 1 29 -1 13 -7 -11 -4 -27 -5 -35 -3 -9 3
-8 0 3 -7 10 -6 25 -9 33 -6 8 3 14 2 14 -2 0 -4 24 -16 53 -26 67 -23 169
-79 211 -117 20 -17 41 -27 53 -25 12 3 20 -1 20 -10 0 -11 -3 -11 -16 -1 -9
6 4 -12 28 -41 42 -51 78 -64 47 -17 -16 24 -6 45 11 22 10 -15 10 -38 0 -55
-5 -8 1 -24 17 -43 14 -17 26 -35 26 -40 0 -6 5 -7 12 -3 6 4 8 3 5 -4 -9 -13
2 -44 13 -37 4 3 7 -1 7 -8 -2 -15 45 -160 54 -167 4 -3 6 -75 5 -160 -2 -141
-4 -162 -29 -234 -42 -119 -126 -253 -197 -312 -16 -14 -27 -31 -23 -36 3 -6
1 -8 -4 -5 -6 4 -22 -2 -34 -14 -13 -11 -18 -17 -10 -13 9 5 12 3 7 -5 -4 -6
-13 -10 -19 -9 -20 4 -58 -22 -51 -34 4 -7 3 -8 -4 -4 -6 4 -26 -1 -43 -10
-25 -12 -29 -18 -18 -25 9 -6 2 -7 -18 -3 -27 5 -33 3 -33 -10 0 -21 28 -32
43 -17 6 6 16 11 22 11 5 0 2 -5 -7 -11 -10 -5 -18 -14 -18 -20 0 -5 12 -2 28
7 15 9 20 10 11 3 -9 -8 -14 -19 -12 -26 2 -6 -1 -14 -6 -18 -7 -4 -8 1 -4 12
3 10 3 15 -2 11 -4 -4 -15 -2 -23 5 -8 6 0 -15 18 -48 67 -120 114 -201 134
-230 12 -16 21 -33 21 -37 0 -5 5 -8 10 -8 19 0 45 11 45 19 0 4 6 8 14 8 23
0 116 64 109 76 -3 6 -1 7 6 3 14 -9 74 32 66 45 -4 5 1 6 9 3 8 -3 19 3 26
15 6 12 16 21 23 21 32 0 242 262 263 327 5 15 4 16 -5 3 -15 -20 -3 44 15 85
8 17 12 21 9 10 -17 -78 -16 -80 10 -31 56 104 102 290 106 436 5 131 0 217
-11 200 -7 -11 -8 -6 -4 17 8 42 -34 216 -50 210 -7 -3 -13 5 -14 16 -1 17 1
19 8 7 15 -23 12 -5 -6 41 -13 30 -19 37 -26 27 -6 -9 -7 -6 -3 8 9 34 -93
219 -111 202 -13 -14 -12 -55 2 -55 10 0 11 4 3 13 -7 8 -7 14 1 19 5 3 10 -1
10 -10 0 -9 5 -13 11 -10 6 4 5 -2 -3 -14 -14 -24 -26 -23 -42 2 -8 13 -7 24
5 45 16 28 15 29 -23 78 -63 79 -132 145 -145 140 -7 -3 -12 0 -10 6 2 13 -94
94 -150 126 -149 84 -239 119 -403 156 -25 5 -26 3 -58 -118z m146 85 c11 -6
10 -10 -4 -15 -9 -3 -19 -4 -22 -1 -3 3 1 5 9 6 8 0 6 4 -6 9 -13 6 -15 9 -5
9 8 0 21 -3 28 -8z m-51 -7 c-3 -3 -12 -4 -19 -1 -8 3 -5 6 6 6 11 1 17 -2 13
-5z m10 -20 c-3 -3 -12 -4 -19 -1 -8 3 -5 6 6 6 11 1 17 -2 13 -5z m40 -10
c-3 -3 -12 -4 -19 -1 -8 3 -5 6 6 6 11 1 17 -2 13 -5z m214 -45 c14 -10 30
-15 35 -11 5 3 3 0 -4 -8 -10 -12 -18 -12 -44 -2 -17 6 -34 9 -38 7 -4 -2 -7
2 -7 10 0 10 5 11 18 4 30 -16 35 -9 9 12 -28 23 -9 16 31 -12z m-336 -26 c-3
-21 -11 -42 -17 -48 -7 -7 -8 -2 -2 15 4 14 8 35 9 48 0 12 4 22 9 22 4 0 5
-17 1 -37z m15 -38 c0 -14 -4 -25 -9 -25 -4 0 -6 11 -3 25 2 14 6 25 8 25 2 0
4 -11 4 -25z m475 -35 c4 -6 12 -7 18 -4 8 4 7 2 -1 -7 -11 -12 -14 -12 -22 1
-8 13 -11 13 -19 1 -17 -26 -32 -1 -22 37 2 5 40 -18 46 -28z m75 -55 c11 -13
10 -14 -4 -9 -9 3 -16 10 -16 15 0 13 6 11 20 -6z m100 -89 c28 -29 36 -44 28
-53 -5 -7 -6 -18 -2 -25 5 -10 4 -10 -6 -1 -10 9 -10 15 -2 26 9 11 6 19 -12
36 -14 13 -29 20 -35 17 -6 -4 -9 -1 -5 7 3 8 1 18 -5 22 -6 3 -11 -1 -11 -9
0 -24 -15 -26 -16 -2 -2 35 24 28 66 -18z m-6 -24 c2 -4 -4 -8 -14 -8 -10 0
-16 4 -14 8 3 4 9 8 14 8 5 0 11 -4 14 -8z m-579 -22 c13 -6 15 -9 5 -9 -8 0
-22 4 -30 9 -18 12 -2 12 25 0z m-28 -16 c-3 -3 -12 -4 -19 -1 -8 3 -5 6 6 6
11 1 17 -2 13 -5z m656 -35 c-15 -16 -22 -18 -28 -8 -5 7 -4 10 3 5 6 -3 16 3
22 15 7 11 14 18 18 15 3 -4 -3 -16 -15 -27z m52 -9 c11 -13 13 -20 5 -14 -8
6 -23 10 -32 9 -14 -3 -15 0 -5 16 6 10 11 17 12 16 0 -1 9 -13 20 -27z m-585
-20 c8 -5 11 -10 5 -10 -5 0 -17 5 -25 10 -8 5 -10 10 -5 10 6 0 17 -5 25 -10z
m70 -5 c-14 -8 -29 -14 -35 -14 -5 0 1 6 15 14 14 8 30 14 35 14 6 0 -1 -6
-15 -14z m23 -43 c-4 -16 28 -31 60 -28 32 4 34 0 7 -14 -16 -8 -28 -5 -60 16
-42 28 -53 48 -22 42 9 -2 16 -9 15 -16z m574 -94 c-3 -7 -5 -2 -5 12 0 14 2
19 5 13 2 -7 2 -19 0 -25z m-447 -43 c14 -19 14 -19 -2 -6 -10 7 -18 18 -18
24 0 6 1 8 3 6 1 -2 9 -13 17 -24z m475 -5 c3 -5 1 -10 -4 -10 -6 0 -11 5 -11
10 0 6 2 10 4 10 3 0 8 -4 11 -10z m-28 -32 c-3 -8 -6 -5 -6 6 -1 11 2 17 5
13 3 -3 4 -12 1 -19z m-376 -40 c-10 -11 -11 -10 -5 5 5 14 2 16 -12 11 -16
-5 -16 -4 -4 5 20 14 39 -4 21 -21z m32 15 c-4 -11 -3 -14 5 -9 7 4 12 3 12
-3 0 -5 -4 -12 -9 -15 -11 -7 -23 22 -15 35 9 15 14 10 7 -8z m10 -58 c-3 -9
-8 -14 -10 -11 -3 3 -2 9 2 15 9 16 15 13 8 -4z m431 -40 c3 -9 0 -15 -9 -15
-9 0 -12 6 -9 15 4 8 7 15 9 15 2 0 5 -7 9 -15z m11 -44 c3 -5 1 -12 -5 -16
-5 -3 -10 0 -11 7 0 7 -4 4 -9 -7 -6 -15 -9 -16 -9 -4 -1 26 21 39 34 20z
m-398 -23 c-3 -8 -6 -5 -6 6 -1 11 2 17 5 13 3 -3 4 -12 1 -19z m32 -44 c1 11
3 17 6 15 2 -3 1 -25 -4 -50 -8 -38 -17 -30 -12 10 2 7 -2 10 -7 7 -5 -3 -7 6
-4 22 l6 27 7 -25 c5 -19 7 -20 8 -6z m378 4 c-3 -8 -6 -5 -6 6 -1 11 2 17 5
13 3 -3 4 -12 1 -19z m-30 -55 c-3 -10 -5 -4 -5 12 0 17 2 24 5 18 2 -7 2 -21
0 -30z m20 5 c-3 -7 -5 -2 -5 12 0 14 2 19 5 13 2 -7 2 -19 0 -25z m-364 -118
c3 -11 1 -18 -4 -14 -5 3 -9 12 -9 20 0 20 7 17 13 -6z m364 -192 c-3 -8 -6
-5 -6 6 -1 11 2 17 5 13 3 -3 4 -12 1 -19z m25 -10 c-7 -7 -12 -8 -12 -2 0 14
12 26 19 19 2 -3 -1 -11 -7 -17z m-405 -10 c-3 -8 -6 -5 -6 6 -1 11 2 17 5 13
3 -3 4 -12 1 -19z m390 -50 c-3 -7 -5 -2 -5 12 0 14 2 19 5 13 2 -7 2 -19 0
-25z m-34 -70 c-7 -17 -9 -14 -9 16 0 27 2 32 9 20 5 -10 5 -24 0 -36z m7 -42
c0 -3 -4 -8 -10 -11 -5 -3 -10 -1 -10 4 0 6 5 11 10 11 6 0 10 -2 10 -4z
m-423 -48 c2 -17 0 -19 -7 -8 -5 8 -6 18 -4 22 8 12 10 10 11 -14z m-14 -48
c-3 -12 -8 -19 -11 -16 -5 6 5 36 12 36 2 0 2 -9 -1 -20z m354 -62 c-3 -8 -6
-5 -6 6 -1 11 2 17 5 13 3 -3 4 -12 1 -19z m-427 -14 c11 -12 11 -15 0 -12 -8
2 -19 -7 -25 -20 -5 -12 -18 -25 -27 -28 -21 -6 -24 -24 -5 -24 15 0 41 26 50
50 4 11 6 11 6 -3 2 -43 -63 -81 -86 -52 -5 6 -7 9 -4 8 8 -4 80 81 75 89 -9
14 3 9 16 -8z m399 -126 c-5 -10 -15 -18 -22 -18 -8 0 -8 3 2 9 7 5 11 13 8
18 -3 5 0 10 8 10 10 0 11 -5 4 -19z m-39 -31 c0 -4 -5 -5 -10 -2 -7 4 -9 -2
-6 -17 2 -13 -2 -32 -9 -41 -12 -17 -13 -17 -19 0 -4 10 -1 20 7 25 9 5 13 21
11 45 -2 35 -2 37 12 19 8 -11 14 -24 14 -29z m-524 -5 c-14 -3 -16 -6 -6 -12
8 -5 3 -8 -14 -7 -22 2 -24 4 -11 13 8 6 12 14 9 17 -3 3 5 3 18 -1 20 -5 21
-7 4 -10z m-87 -39 c-12 -15 -12 -16 6 -9 16 6 18 5 8 -5 -10 -10 -16 -10 -25
-1 -10 10 -10 15 2 22 22 14 24 12 9 -7z m-64 -33 c3 -5 1 -10 -4 -10 -6 0
-11 5 -11 10 0 6 2 10 4 10 3 0 8 -4 11 -10z m595 -11 c0 -14 -17 -10 -23 5
-4 10 -1 13 9 9 7 -3 14 -9 14 -14z m30 7 c0 -3 -4 -8 -10 -11 -5 -3 -10 -1
-10 4 0 6 5 11 10 11 6 0 10 -2 10 -4z m-31 -47 c-5 -10 -15 -21 -22 -25 -9
-5 -9 -4 1 7 15 16 16 33 0 23 -6 -4 -8 -3 -5 3 3 5 13 10 21 10 11 0 13 -5 5
-18z m-513 -48 c-1 -22 -5 -43 -9 -47 -4 -5 -5 0 -1 10 6 15 4 17 -7 11 -11
-6 -12 -5 -2 5 9 9 9 19 2 33 -8 14 -8 18 0 13 6 -4 11 -2 11 3 0 6 2 11 3 11
2 0 3 -18 3 -39z m427 -25 c3 -8 0 -19 -7 -25 -10 -9 -13 -6 -11 11 4 34 9 38
18 14z m-43 -16 c0 -5 -4 -10 -10 -10 -5 0 -10 5 -10 10 0 6 5 10 10 10 6 0
10 -4 10 -10z m-45 -20 c3 -5 1 -10 -4 -10 -6 0 -11 5 -11 10 0 6 2 10 4 10 3
0 8 -4 11 -10z m-264 -39 c-13 -8 -13 -12 0 -28 12 -16 12 -17 -2 -6 -9 7 -19
9 -24 5 -4 -4 -2 3 4 16 6 12 17 22 24 22 8 0 7 -3 -2 -9z m250 -4 c-6 -8 -8
-17 -4 -21 4 -4 0 -4 -10 0 -17 6 -17 7 0 20 23 17 28 18 14 1z m-281 -1 c0
-3 -4 -8 -10 -11 -5 -3 -10 -1 -10 4 0 6 5 11 10 11 6 0 10 -2 10 -4z m215
-67 c-4 -5 -12 -9 -18 -8 -9 0 -8 2 1 6 6 2 9 10 6 15 -4 7 -2 8 5 4 6 -4 9
-12 6 -17z m-125 -19 c0 -5 -4 -10 -10 -10 -5 0 -10 5 -10 10 0 6 5 10 10 10
6 0 10 -4 10 -10z m66 -6 c10 -8 13 -13 6 -9 -7 4 -21 1 -30 -7 -15 -12 -16
-11 -4 4 10 13 10 17 0 21 -7 3 -8 6 -2 6 5 1 19 -6 30 -15z m-46 -18 c0 -3
-4 -8 -10 -11 -5 -3 -10 -1 -10 4 0 6 5 11 10 11 6 0 10 -2 10 -4z"/>
<path d="M2813 2585 c0 -8 4 -12 9 -9 5 3 6 10 3 15 -9 13 -12 11 -12 -6z"/>
<path d="M404 2123 c-8 -42 1 -202 16 -288 28 -154 102 -334 193 -470 52 -78
184 -214 267 -275 490 -363 1165 -301 1582 144 26 28 48 53 48 56 0 3 -70 75
-156 160 -148 148 -156 154 -170 135 -67 -93 -200 -193 -314 -238 -112 -44
-151 -51 -275 -51 -142 0 -233 22 -359 86 -112 58 -245 190 -303 303 -68 133
-88 210 -88 352 l0 123 -217 0 -217 0 -7 -37z"/>
</g>
</svg>
